<svg xmlns="http://www.w3.org/2000/svg" viewBox="0 0 640 48">
<!-- Leafy divider: slim tapering vine, hairline at both ends, small blossom at centre. -->
<path fill="#000" d="M0 24 C90 23.3 150 22.3 230 22 C280 21.85 360 21.85 410 22 C490 22.3 550 23.3 640 24 C550 24.7 490 25.7 410 26 C360 26.15 280 26.15 230 26 C150 25.7 90 24.7 0 24Z"/>
<g fill="#000">
<path d="M120 23 c-4 -9 -13 -15 -24 -15 c2 10 11 17 24 15z"/>
<path d="M205 25 c5 8 15 12 25 10 c-3 -9 -13 -15 -25 -10z"/>
<path d="M430 23 c4 -9 13 -15 24 -15 c-2 10 -11 17 -24 15z"/>
<path d="M515 25 c-5 8 -15 12 -25 10 c3 -9 13 -15 25 -10z"/>
<path d="M320 24 c-6 -4 -6 -10 0 -14 c6 4 6 10 0 14z"/>
<path d="M320 24 c4 -6 10 -6 14 0 c-4 6 -10 6 -14 0z"/>
<path d="M320 24 c-6 4 -6 10 0 14 c6 -4 6 -10 0 -14z"/>
<path d="M320 24 c-4 -6 -10 -6 -14 0 c4 6 10 6 14 0z"/>
<circle cx="320" cy="24" r="2.4"/>
</g>
</svg>
